<?xml version="1.0" encoding="utf-8"?>
<!-- Generator: Adobe Illustrator 16.0.1, SVG Export Plug-In . SVG Version: 6.00 Build 0)  -->
<!DOCTYPE svg PUBLIC "-//W3C//DTD SVG 1.1//EN" "http://www.w3.org/Graphics/SVG/1.1/DTD/svg11.dtd">
<svg version="1.1" id="Layer_1" xmlns="http://www.w3.org/2000/svg" xmlns:xlink="http://www.w3.org/1999/xlink" x="0px" y="0px"
	 width="10px" height="10px" viewBox="0 0 10 10" enable-background="new 0 0 10 10" xml:space="preserve">
<path fill="#333333" d="M7.17,4.679C7.264,4.771,7.311,4.88,7.311,5.004c0,0.125-0.047,0.233-0.141,0.326L3.953,8.543
	C3.861,8.635,3.754,8.682,3.631,8.682S3.4,8.635,3.307,8.543L2.828,8.064C2.736,7.971,2.689,7.863,2.689,7.74
	s0.047-0.23,0.139-0.322l2.434-2.433L2.828,2.582C2.736,2.489,2.689,2.383,2.689,2.264s0.047-0.226,0.139-0.318l0.479-0.488
	C3.4,1.364,3.508,1.318,3.633,1.318s0.232,0.046,0.32,0.139L7.17,4.679L7.17,4.679z"/>
</svg>
