<?xml version="1.0" encoding="utf-8"?>
<!-- Generator: Adobe Illustrator 16.0.1, SVG Export Plug-In . SVG Version: 6.00 Build 0)  -->
<!DOCTYPE svg PUBLIC "-//W3C//DTD SVG 1.1//EN" "http://www.w3.org/Graphics/SVG/1.1/DTD/svg11.dtd">
<svg version="1.1" id="Layer_1" xmlns="http://www.w3.org/2000/svg" xmlns:xlink="http://www.w3.org/1999/xlink" x="0px" y="0px"
	 width="10px" height="10px" viewBox="0 0 10 10" enable-background="new 0 0 10 10" xml:space="preserve">
<path fill="#333333" d="M2.829,5.32C2.736,5.229,2.689,5.121,2.689,5s0.047-0.227,0.14-0.316l3.212-3.227
	c0.093-0.092,0.201-0.139,0.326-0.139c0.124,0,0.232,0.047,0.325,0.139l0.479,0.479c0.093,0.094,0.14,0.201,0.14,0.326
	s-0.047,0.23-0.14,0.32L4.739,5.023l2.432,2.395c0.093,0.092,0.14,0.197,0.14,0.318c0,0.119-0.047,0.225-0.14,0.318L6.692,8.543
	C6.6,8.635,6.491,8.682,6.367,8.682c-0.125,0-0.233-0.047-0.326-0.139L2.829,5.32L2.829,5.32z"/>
</svg>
