<?xml version="1.0" encoding="UTF-8" standalone="no"?>
<svg width="417px" height="73px" viewBox="0 0 417 73" version="1.1" xmlns="http://www.w3.org/2000/svg" xmlns:xlink="http://www.w3.org/1999/xlink" xmlns:sketch="http://www.bohemiancoding.com/sketch/ns">
    <g id="Page-1" stroke="none" stroke-width="1" fill="none" fill-rule="evenodd" sketch:type="MSPage">
        <g id="proteus" sketch:type="MSLayerGroup" fill="#000000">
            <g id="Group" sketch:type="MSShapeGroup">
                <g id="Shape">
                    <path d="M65.909,55.576 L1.104,55.576 C0.493,55.576 0,55.083 0,54.471 C0,53.859 0.493,53.367 1.104,53.367 L65.908,53.367 C66.515,53.367 67.009,53.86 67.009,54.471 C67.009,55.082 66.516,55.576 65.909,55.576 L65.909,55.576 Z"></path>
                    <path d="M57.809,59.861 L9.661,59.861 C9.057,59.861 8.56,59.361 8.56,58.757 C8.56,58.147 9.057,57.653 9.661,57.653 L57.808,57.653 C58.415,57.653 58.909,58.147 58.909,58.757 C58.91,59.361 58.416,59.861 57.809,59.861 L57.809,59.861 Z"></path>
                    <path d="M51.733,64.139 L16.082,64.139 C15.471,64.139 14.978,63.646 14.978,63.035 C14.978,62.424 15.472,61.931 16.082,61.931 L51.733,61.931 C52.341,61.931 52.834,62.424 52.834,63.035 C52.834,63.646 52.341,64.139 51.733,64.139 L51.733,64.139 Z"></path>
                    <path d="M47.15,68.425 L20.36,68.425 C19.749,68.425 19.256,67.924 19.256,67.321 C19.256,66.71 19.75,66.217 20.36,66.217 L47.15,66.217 C47.761,66.217 48.254,66.71 48.254,67.321 C48.254,67.924 47.761,68.425 47.15,68.425 L47.15,68.425 Z"></path>
                    <path d="M43.718,72.704 L22.503,72.704 C21.892,72.704 21.399,72.211 21.399,71.6 C21.399,70.989 21.892,70.496 22.503,70.496 L43.718,70.496 C44.325,70.496 44.815,70.989 44.815,71.6 C44.815,72.211 44.326,72.704 43.718,72.704 L43.718,72.704 Z"></path>
                    <path d="M62.12,49.987 C61.745,49.987 61.376,49.788 61.17,49.442 L34.061,3.557 L6.848,49.442 C6.535,49.972 5.861,50.141 5.339,49.832 C4.812,49.523 4.639,48.846 4.948,48.323 L33.114,0.832 C33.313,0.497 33.674,0.294 34.064,0.294 L34.064,0.294 C34.454,0.294 34.815,0.497 35.014,0.832 L63.07,48.323 C63.375,48.845 63.202,49.523 62.679,49.832 C62.503,49.935 62.312,49.987 62.12,49.987 L62.12,49.987 Z"></path>
                    <path d="M12.923,49.854 C12.739,49.854 12.555,49.81 12.378,49.714 C11.852,49.412 11.664,48.741 11.965,48.212 L33.092,10.99 C33.287,10.644 33.652,10.43 34.05,10.43 L34.05,10.43 C34.447,10.43 34.816,10.643 35.007,10.99 L56.052,48.212 C56.354,48.741 56.163,49.412 55.633,49.714 C55.103,50.016 54.433,49.824 54.134,49.294 L34.05,13.766 L13.881,49.302 C13.682,49.655 13.306,49.854 12.923,49.854 L12.923,49.854 Z"></path>
                    <path d="M48.1,49.972 C47.717,49.972 47.342,49.765 47.139,49.405 L33.854,25.909 L20.515,49.413 C20.213,49.935 19.543,50.127 19.013,49.825 C18.483,49.523 18.299,48.853 18.6,48.323 L32.897,23.126 C33.092,22.784 33.46,22.57 33.858,22.57 L33.858,22.57 C34.255,22.57 34.62,22.783 34.815,23.13 L49.056,48.323 C49.354,48.853 49.167,49.523 48.637,49.825 C48.468,49.92 48.284,49.972 48.1,49.972 L48.1,49.972 Z"></path>
                </g>
                <g transform="translate(72.000000, 0.000000)" id="Shape">
                    <path d="M-0.233,1.793 C3.61,1.108 8.824,0.6 15.827,0.6 C23.515,0.6 29.067,2.22 32.742,5.294 C36.155,8.11 38.375,12.643 38.375,18.022 C38.375,23.49 36.667,27.93 33.507,31.004 C29.236,35.19 22.745,37.241 15.315,37.241 C13.349,37.241 11.641,37.157 10.186,36.814 L10.186,58.594 L-0.233,58.594 L-0.233,1.793 L-0.233,1.793 Z M10.186,28.527 C11.556,28.954 13.176,29.043 15.315,29.043 C23.172,29.043 27.955,25.11 27.955,18.45 C27.955,12.044 23.515,8.712 16.254,8.712 C13.349,8.712 11.298,8.97 10.186,9.227 L10.186,28.527 L10.186,28.527 Z"></path>
                    <path d="M47.513,1.881 C51.53,1.108 57.336,0.6 63.404,0.6 C71.688,0.6 77.241,1.962 81.169,5.21 C84.332,7.861 86.121,11.87 86.121,16.826 C86.121,24.256 81.084,29.296 75.617,31.178 L75.617,31.432 C79.804,32.971 82.278,36.984 83.647,42.535 C85.524,49.715 87.064,56.379 88.175,58.596 L77.409,58.596 C76.555,56.887 75.104,52.189 73.565,45.009 C71.857,37.5 69.213,35.107 63.234,34.938 L57.936,34.938 L57.936,58.596 L47.513,58.596 L47.513,1.881 L47.513,1.881 Z M57.936,27.246 L64.169,27.246 C71.26,27.246 75.616,23.491 75.616,17.766 C75.616,11.533 71.261,8.539 64.427,8.539 C61.095,8.539 58.959,8.8 57.936,9.058 L57.936,27.246 L57.936,27.246 Z"></path>
                    <path d="M147.195,29.211 C147.195,48.514 135.494,59.537 119.691,59.537 C103.373,59.537 93.123,47.062 93.123,30.235 C93.124,12.47 104.316,0 120.546,0 C137.283,0 147.195,12.728 147.195,29.211 L147.195,29.211 Z M104.228,29.978 C104.228,41.77 110.126,51.077 120.203,51.077 C130.369,51.077 136.091,41.599 136.091,29.551 C136.091,18.704 130.708,8.458 120.203,8.458 C109.78,8.457 104.228,18.107 104.228,29.978 L104.228,29.978 Z"></path>
                    <path d="M164.964,9.823 L148.561,9.823 L148.561,1.023 L192.04,1.023 L192.04,9.823 L175.468,9.823 L175.468,58.595 L164.964,58.595 L164.964,9.823 L164.964,9.823 Z"></path>
                    <path d="M230.986,33.056 L209.293,33.056 L209.293,49.973 L233.549,49.973 L233.549,58.596 L198.785,58.596 L198.785,1.023 L232.267,1.023 L232.267,9.653 L209.292,9.653 L209.292,24.513 L230.985,24.513 L230.985,33.056 L230.986,33.056 Z"></path>
                    <path d="M253.195,1.023 L253.195,34.594 C253.195,45.87 257.893,51.076 264.984,51.076 C272.584,51.076 277.112,45.87 277.112,34.594 L277.112,1.023 L287.621,1.023 L287.621,33.91 C287.621,51.681 278.478,59.538 264.639,59.538 C251.318,59.538 242.688,52.107 242.688,33.995 L242.688,1.023 L253.195,1.023 L253.195,1.023 Z"></path>
                    <path d="M299.491,47.152 C302.819,49.118 308.033,50.826 313.412,50.826 C320.072,50.826 323.835,47.66 323.835,42.962 C323.835,38.608 320.927,36.046 313.67,33.399 C304.101,29.979 298.036,24.942 298.036,16.658 C298.036,7.174 305.897,0.086 318.452,0.086 C324.689,0.086 329.211,1.452 332.204,2.991 L329.726,11.448 C327.59,10.336 323.577,8.713 318.194,8.713 C311.534,8.713 308.717,12.218 308.717,15.631 C308.717,20.075 312.045,22.122 319.733,25.111 C329.726,28.87 334.512,33.911 334.512,42.197 C334.512,51.505 327.505,59.539 312.73,59.539 C306.582,59.539 300.256,57.83 297.097,55.864 L299.491,47.152 L299.491,47.152 Z"></path>
                </g>
                <path d="M416.461,60.068 C416.461,61.739 415.157,63.072 413.512,63.072 C411.852,63.072 410.533,61.739 410.533,60.068 C410.533,58.418 411.851,57.086 413.522,57.086 C415.157,57.085 416.461,58.417 416.461,60.068 L416.461,60.068 Z M411.107,60.089 C411.107,61.481 412.16,62.593 413.501,62.593 C414.83,62.601 415.887,61.481 415.887,60.074 C415.887,58.682 414.83,57.57 413.493,57.57 C412.16,57.571 411.107,58.683 411.107,60.089 L411.107,60.089 Z M414.687,59.051 C414.558,58.97 414.194,58.822 413.745,58.822 C412.931,58.822 412.474,59.331 412.474,60.096 C412.474,60.825 412.949,61.377 413.755,61.377 C414.142,61.377 414.502,61.281 414.723,61.134 L414.86,61.569 C414.517,61.804 414.076,61.878 413.656,61.878 C412.522,61.878 411.874,61.112 411.874,60.126 C411.874,59.022 412.758,58.321 413.745,58.321 C414.23,58.321 414.687,58.468 414.812,58.587 L414.687,59.051 L414.687,59.051 Z" id="Shape"></path>
            </g>
        </g>
    </g>
</svg>