<?xml version="1.0" encoding="utf-8"?>
<!-- Generator: Adobe Illustrator 16.0.1, SVG Export Plug-In . SVG Version: 6.00 Build 0)  -->
<!DOCTYPE svg PUBLIC "-//W3C//DTD SVG 1.1//EN" "http://www.w3.org/Graphics/SVG/1.1/DTD/svg11.dtd">
<svg version="1.1" id="Layer_1" xmlns="http://www.w3.org/2000/svg" xmlns:xlink="http://www.w3.org/1999/xlink" x="0px" y="0px"
	 width="85.352px" height="60.107px" viewBox="0 0 85.352 60.107" enable-background="new 0 0 85.352 60.107" xml:space="preserve">
<circle cx="42.676" cy="30.054" r="7.852"/>
<path d="M72.903,0.001c7.691,7.691,12.448,18.317,12.448,30.053c0,11.737-4.757,22.362-12.448,30.053l-6.588-6.586
	c6.005-6.006,9.72-14.303,9.72-23.467c0-9.164-3.715-17.46-9.72-23.466L72.903,0.001z M12.449,60.107
	C4.757,52.416,0,41.791,0,30.054C0,18.317,4.757,7.691,12.449,0l6.588,6.588c-6.005,6.006-9.72,14.302-9.72,23.466
	c0,9.165,3.715,17.459,9.72,23.465L12.449,60.107z"/>
<path d="M53.826,19.079c2.809,2.809,4.546,6.688,4.546,10.975c0,4.288-1.737,8.167-4.546,10.975l6.953,6.955
	c4.589-4.588,7.428-10.928,7.428-17.93c0-7.002-2.838-13.341-7.428-17.93L53.826,19.079z M31.526,41.029
	c-2.809-2.809-4.546-6.689-4.546-10.975c0-4.286,1.737-8.167,4.546-10.976l-6.954-6.954c-4.588,4.589-7.427,10.928-7.427,17.93
	c0,7.002,2.838,13.34,7.427,17.93L31.526,41.029z"/>
</svg>
