<?xml version="1.0" encoding="UTF-8" standalone="no"?>
<svg width="150px" height="26px" viewBox="0 0 150 26" version="1.1" xmlns="http://www.w3.org/2000/svg" xmlns:xlink="http://www.w3.org/1999/xlink" xmlns:sketch="http://www.bohemiancoding.com/sketch/ns">
    <!-- Generator: Sketch 3.0.4 (8054) - http://www.bohemiancoding.com/sketch -->
    <title>Slice 2</title>
    <desc>Created with Sketch.</desc>
    <defs></defs>
    <g id="Page-1" stroke="none" stroke-width="1" fill="none" fill-rule="evenodd" sketch:type="MSPage">
        <g id="Group" sketch:type="MSLayerGroup" fill="#000000">
            <path d="M23.7082734,20.0691111 L0.397122302,20.0691111 C0.177338129,20.0691111 0,19.8910833 0,19.6700833 C0,19.4490833 0.177338129,19.2714167 0.397122302,19.2714167 L23.7079137,19.2714167 C23.926259,19.2714167 24.1039568,19.4494444 24.1039568,19.6700833 C24.1039568,19.8907222 23.9266187,20.0691111 23.7082734,20.0691111 L23.7082734,20.0691111 L23.7082734,20.0691111 Z" id="Shape" sketch:type="MSShapeGroup"></path>
            <path d="M20.7946043,21.6164722 L3.47517986,21.6164722 C3.25791367,21.6164722 3.07913669,21.4359167 3.07913669,21.2178056 C3.07913669,20.9975278 3.25791367,20.8191389 3.47517986,20.8191389 L20.7942446,20.8191389 C21.0125899,20.8191389 21.1902878,20.9975278 21.1902878,21.2178056 C21.1906475,21.4359167 21.0129496,21.6164722 20.7946043,21.6164722 L20.7946043,21.6164722 L20.7946043,21.6164722 Z" id="Shape" sketch:type="MSShapeGroup"></path>
            <path d="M18.6089928,23.1613056 L5.78489209,23.1613056 C5.56510791,23.1613056 5.38776978,22.9832778 5.38776978,22.7626389 C5.38776978,22.542 5.56546763,22.3639722 5.78489209,22.3639722 L18.6089928,22.3639722 C18.8276978,22.3639722 19.005036,22.542 19.005036,22.7626389 C19.005036,22.9832778 18.8276978,23.1613056 18.6089928,23.1613056 L18.6089928,23.1613056 L18.6089928,23.1613056 Z" id="Shape" sketch:type="MSShapeGroup"></path>
            <path d="M16.9604317,24.7090278 L7.32374101,24.7090278 C7.10395683,24.7090278 6.92661871,24.5281111 6.92661871,24.3103611 C6.92661871,24.0897222 7.10431655,23.9116944 7.32374101,23.9116944 L16.9604317,23.9116944 C17.1802158,23.9116944 17.357554,24.0897222 17.357554,24.3103611 C17.357554,24.5281111 17.1802158,24.7090278 16.9604317,24.7090278 L16.9604317,24.7090278 L16.9604317,24.7090278 Z" id="Shape" sketch:type="MSShapeGroup"></path>
            <path d="M15.7258993,26.2542222 L8.09460432,26.2542222 C7.87482014,26.2542222 7.69748201,26.0761944 7.69748201,25.8555556 C7.69748201,25.6349167 7.87482014,25.4568889 8.09460432,25.4568889 L15.7258993,25.4568889 C15.9442446,25.4568889 16.1205036,25.6349167 16.1205036,25.8555556 C16.1205036,26.0761944 15.9446043,26.2542222 15.7258993,26.2542222 L15.7258993,26.2542222 L15.7258993,26.2542222 Z" id="Shape" sketch:type="MSShapeGroup"></path>
            <path d="M22.3453237,18.0508611 C22.2104317,18.0508611 22.0776978,17.979 22.0035971,17.8540556 L12.2521583,1.28447222 L2.46330935,17.8540556 C2.35071942,18.0454444 2.10827338,18.1064722 1.9205036,17.9948889 C1.73093525,17.8833056 1.66870504,17.6388333 1.77985612,17.4499722 L11.9115108,0.300444444 C11.9830935,0.179472222 12.1129496,0.106166667 12.2532374,0.106166667 L12.2532374,0.106166667 C12.3935252,0.106166667 12.5233813,0.179472222 12.594964,0.300444444 L22.6870504,17.4499722 C22.7967626,17.6384722 22.7345324,17.8833056 22.5464029,17.9948889 C22.4830935,18.0320833 22.4143885,18.0508611 22.3453237,18.0508611 L22.3453237,18.0508611 L22.3453237,18.0508611 Z" id="Shape" sketch:type="MSShapeGroup"></path>
            <path d="M4.64856115,18.0028333 C4.5823741,18.0028333 4.51618705,17.9869444 4.45251799,17.9522778 C4.26330935,17.8432222 4.19568345,17.6009167 4.30395683,17.4098889 L11.9035971,3.96861111 C11.973741,3.84366667 12.105036,3.76638889 12.2482014,3.76638889 L12.2482014,3.76638889 C12.3910072,3.76638889 12.523741,3.84330556 12.592446,3.96861111 L20.1625899,17.4098889 C20.271223,17.6009167 20.202518,17.8432222 20.0118705,17.9522778 C19.821223,18.0613333 19.5802158,17.992 19.4726619,17.8006111 L12.2482014,4.97105556 L4.99316547,17.8035 C4.92158273,17.9309722 4.78633094,18.0028333 4.64856115,18.0028333 L4.64856115,18.0028333 L4.64856115,18.0028333 Z" id="Shape" sketch:type="MSShapeGroup"></path>
            <path d="M17.3021583,18.0454444 C17.1643885,18.0454444 17.0294964,17.9706944 16.9564748,17.8406944 L12.1776978,9.35602778 L7.3794964,17.8435833 C7.27086331,18.0320833 7.02985612,18.1014167 6.83920863,17.9923611 C6.64856115,17.8833056 6.5823741,17.6413611 6.69064748,17.4499722 L11.8334532,8.35105556 C11.9035971,8.22755556 12.0359712,8.15027778 12.1791367,8.15027778 L12.1791367,8.15027778 C12.3219424,8.15027778 12.4532374,8.22719444 12.5233813,8.3525 L17.6460432,17.4499722 C17.7532374,17.6413611 17.6859712,17.8833056 17.4953237,17.9923611 C17.4345324,18.0266667 17.3683453,18.0454444 17.3021583,18.0454444 L17.3021583,18.0454444 L17.3021583,18.0454444 Z" id="Shape" sketch:type="MSShapeGroup"></path>
            <path d="M25.8154676,0.647472222 C27.1978417,0.400111111 29.0733813,0.216666667 31.592446,0.216666667 C34.3579137,0.216666667 36.355036,0.801666667 37.6769784,1.91172222 C38.9046763,2.92861111 39.7032374,4.56552778 39.7032374,6.50794444 C39.7032374,8.4825 39.0888489,10.0858333 37.9521583,11.1958889 C36.4158273,12.7075 34.0809353,13.4481389 31.4082734,13.4481389 C30.7010791,13.4481389 30.0866906,13.4178056 29.5633094,13.2939444 L29.5633094,21.1589444 L25.8154676,21.1589444 L25.8154676,0.647472222 L25.8154676,0.647472222 Z M29.5633094,10.3014167 C30.0561151,10.4556111 30.6388489,10.48775 31.4082734,10.48775 C34.2345324,10.48775 35.955036,9.0675 35.955036,6.6625 C35.955036,4.34922222 34.3579137,3.146 31.7460432,3.146 C30.7010791,3.146 29.9633094,3.23916667 29.5633094,3.33197222 L29.5633094,10.3014167 L29.5633094,10.3014167 Z" id="Shape" sketch:type="MSShapeGroup"></path>
            <path d="M42.9902878,0.67925 C44.4352518,0.400111111 46.523741,0.216666667 48.7064748,0.216666667 C51.6863309,0.216666667 53.6838129,0.7085 55.0967626,1.88138889 C56.2345324,2.83869444 56.8780576,4.28638889 56.8780576,6.07605556 C56.8780576,8.75911111 55.0661871,10.5791111 53.0996403,11.2587222 L53.0996403,11.3504444 C54.6057554,11.9061944 55.4956835,13.3553333 55.9881295,15.3598611 C56.6633094,17.9526389 57.2172662,20.3590833 57.6169065,21.1596667 L53.7442446,21.1596667 C53.4370504,20.5425278 52.9151079,18.8460278 52.3615108,16.25325 C51.7471223,13.5416667 50.7960432,12.6775278 48.6453237,12.6165 L46.7395683,12.6165 L46.7395683,21.1596667 L42.9902878,21.1596667 L42.9902878,0.67925 L42.9902878,0.67925 Z M46.7395683,9.83883333 L48.9816547,9.83883333 C51.5323741,9.83883333 53.0992806,8.48286111 53.0992806,6.4155 C53.0992806,4.16469444 51.5327338,3.08352778 49.0744604,3.08352778 C47.8758993,3.08352778 47.107554,3.17777778 46.7395683,3.27094444 L46.7395683,9.83883333 L46.7395683,9.83883333 Z" id="Shape" sketch:type="MSShapeGroup"></path>
            <path d="M78.8471223,10.5484167 C78.8471223,17.5189444 74.6381295,21.4994722 68.9535971,21.4994722 C63.0838129,21.4994722 59.3967626,16.9946111 59.3967626,10.9181944 C59.3971223,4.50305556 63.4230216,0 69.2611511,0 C75.2816547,0 78.8471223,4.59622222 78.8471223,10.5484167 L78.8471223,10.5484167 L78.8471223,10.5484167 Z M63.3913669,10.8253889 C63.3913669,15.0836111 65.5129496,18.4444722 69.1377698,18.4444722 C72.7946043,18.4444722 74.8528777,15.0218611 74.8528777,10.6711944 C74.8528777,6.75422222 72.9165468,3.05427778 69.1377698,3.05427778 C65.3884892,3.05391667 63.3913669,6.53863889 63.3913669,10.8253889 L63.3913669,10.8253889 L63.3913669,10.8253889 Z" id="Shape" sketch:type="MSShapeGroup"></path>
            <path d="M85.2388489,3.54719444 L79.3384892,3.54719444 L79.3384892,0.369416667 L94.9784173,0.369416667 L94.9784173,3.54719444 L89.0172662,3.54719444 L89.0172662,21.1593056 L85.2388489,21.1593056 L85.2388489,3.54719444 L85.2388489,3.54719444 Z" id="Shape" sketch:type="MSShapeGroup"></path>
            <path d="M108.98777,11.9368889 L101.184532,11.9368889 L101.184532,18.0458056 L109.909712,18.0458056 L109.909712,21.1596667 L97.4046763,21.1596667 L97.4046763,0.369416667 L109.448561,0.369416667 L109.448561,3.48580556 L101.184173,3.48580556 L101.184173,8.85191667 L108.98741,8.85191667 L108.98741,11.9368889 L108.98777,11.9368889 L108.98777,11.9368889 Z" id="Shape" sketch:type="MSShapeGroup"></path>
            <path d="M116.976619,0.369416667 L116.976619,12.4922778 C116.976619,16.5641667 118.666547,18.4441111 121.217266,18.4441111 C123.951079,18.4441111 125.579856,16.5641667 125.579856,12.4922778 L125.579856,0.369416667 L129.360072,0.369416667 L129.360072,12.2452778 C129.360072,18.6625833 126.071223,21.4998333 121.093165,21.4998333 C116.301439,21.4998333 113.197122,18.8164167 113.197122,12.2759722 L113.197122,0.369416667 L116.976619,0.369416667 L116.976619,0.369416667 Z" id="Shape" sketch:type="MSShapeGroup"></path>
            <path d="M133.629856,17.0271111 C134.826978,17.7370556 136.702518,18.3538333 138.63741,18.3538333 C141.033094,18.3538333 142.386691,17.2105556 142.386691,15.5140556 C142.386691,13.9417778 141.340647,13.0166111 138.730216,12.06075 C135.288129,10.82575 133.106475,9.00683333 133.106475,6.01538889 C133.106475,2.59061111 135.934173,0.0310555556 140.45036,0.0310555556 C142.693885,0.0310555556 144.320504,0.524333333 145.397122,1.08008333 L144.505755,4.134 C143.73741,3.73244444 142.293885,3.14636111 140.357554,3.14636111 C137.961871,3.14636111 136.948561,4.41205556 136.948561,5.64452778 C136.948561,7.24930556 138.145683,7.9885 140.911151,9.06786111 C144.505755,10.4252778 146.227338,12.2456389 146.227338,15.2378056 C146.227338,18.5990278 143.706835,21.5001944 138.392086,21.5001944 C136.180576,21.5001944 133.905036,20.8830556 132.768705,20.1731111 L133.629856,17.0271111 L133.629856,17.0271111 Z" id="Shape" sketch:type="MSShapeGroup"></path>
            <path d="M149.806115,21.6912222 C149.806115,22.2946389 149.33705,22.776 148.745324,22.776 C148.148201,22.776 147.673741,22.2946389 147.673741,21.6912222 C147.673741,21.0953889 148.147842,20.6143889 148.748921,20.6143889 C149.33705,20.6140278 149.806115,21.0950278 149.806115,21.6912222 L149.806115,21.6912222 L149.806115,21.6912222 Z M147.880216,21.6988056 C147.880216,22.2014722 148.258993,22.6030278 148.741367,22.6030278 C149.219424,22.6059167 149.59964,22.2014722 149.59964,21.6933889 C149.59964,21.1907222 149.219424,20.7891667 148.738489,20.7891667 C148.258993,20.7895278 147.880216,21.1910833 147.880216,21.6988056 L147.880216,21.6988056 L147.880216,21.6988056 Z M149.167986,21.3239722 C149.121583,21.2947222 148.990647,21.2412778 148.829137,21.2412778 C148.536331,21.2412778 148.371942,21.4250833 148.371942,21.7013333 C148.371942,21.9645833 148.542806,22.1639167 148.832734,22.1639167 C148.971942,22.1639167 149.101439,22.12925 149.180935,22.0761667 L149.230216,22.23325 C149.106835,22.3181111 148.948201,22.3448333 148.797122,22.3448333 C148.389209,22.3448333 148.156115,22.0682222 148.156115,21.7121667 C148.156115,21.3135 148.474101,21.0603611 148.829137,21.0603611 C149.003597,21.0603611 149.167986,21.1134444 149.21295,21.1564167 L149.167986,21.3239722 L149.167986,21.3239722 Z" id="Shape" sketch:type="MSShapeGroup"></path>
        </g>
    </g>
</svg>